<svg version="1.1" id="Capa_1" xmlns="http://www.w3.org/2000/svg" xmlns:xlink="http://www.w3.org/1999/xlink" x="0px" y="0px" viewBox="0 542 800 204" enable-background="new 0 542 800 204" xml:space="preserve"> <g> <path fill="#EC2928" d="M298,650.3c-4.8,2.5-9.8,4.3-15.1,5.4c-5.2,1.1-10.6,1.7-16,1.7c-5.8,0-11.1-0.9-16-2.7 c-4.9-1.8-9.1-4.4-12.7-7.8c-3.6-3.4-6.3-7.5-8.3-12.3c-2-4.8-3-10.2-3-16.1c0-5.9,1-11.3,3-16.1s4.8-8.9,8.3-12.3 c3.6-3.4,7.8-6,12.7-7.8c4.9-1.8,10.2-2.7,16-2.7c5.9,0,11.4,0.7,16.4,2.1c5,1.4,9.4,3.9,13.1,7.4L285,601.6 c-2.2-2.3-4.7-4-7.5-5.2c-2.8-1.2-6.3-1.8-10.5-1.8c-3.5,0-6.6,0.6-9.5,1.8c-2.8,1.2-5.2,2.8-7.3,5c-2,2.1-3.6,4.7-4.7,7.6 c-1.1,2.9-1.6,6.1-1.6,9.5c0,3.5,0.5,6.7,1.6,9.6c1.1,2.9,2.6,5.4,4.7,7.5c2,2.1,4.4,3.8,7.3,5c2.8,1.2,6,1.8,9.5,1.8 c3.6,0,6.6-0.4,9.2-1.2c2.6-0.8,4.6-1.6,6.2-2.5v-12H269v-15.1h29V650.3z"></path> <path fill="#EC2928" d="M358.5,646.7c-2.5,3.2-5.7,5.7-9.5,7.4c-3.8,1.7-7.8,2.6-11.9,2.6c-3.9,0-7.6-0.6-11-1.9s-6.5-3.1-9-5.4 c-2.5-2.3-4.6-5.1-6-8.4c-1.5-3.3-2.2-6.9-2.2-11c0-4,0.7-7.7,2.2-11c1.5-3.3,3.5-6.1,6-8.4c2.5-2.3,5.5-4.1,9-5.4 c3.5-1.3,7.1-1.9,11-1.9c3.6,0,6.9,0.6,9.9,1.9c3,1.3,5.5,3.1,7.5,5.4c2.1,2.3,3.6,5.1,4.8,8.4c1.1,3.3,1.7,6.9,1.7,11v4.9h-36.4 c0.6,3,2,5.4,4.1,7.2c2.1,1.8,4.7,2.7,7.7,2.7c2.6,0,4.8-0.6,6.5-1.7c1.8-1.2,3.3-2.6,4.7-4.4L358.5,646.7z M345.2,624.3 c0.1-2.7-0.8-4.9-2.6-6.8c-1.8-1.9-4.2-2.8-7-2.8c-1.7,0-3.3,0.3-4.6,0.8c-1.3,0.6-2.5,1.3-3.4,2.1c-0.9,0.9-1.7,1.9-2.2,3 c-0.5,1.2-0.8,2.4-0.9,3.6H345.2z"></path> <path fill="#EC2928" d="M418.6,646.7c-2.5,3.2-5.7,5.7-9.5,7.4c-3.8,1.7-7.8,2.6-11.9,2.6c-3.9,0-7.6-0.6-11-1.9s-6.5-3.1-9-5.4 c-2.5-2.3-4.6-5.1-6-8.4c-1.5-3.3-2.2-6.9-2.2-11c0-4,0.7-7.7,2.2-11c1.5-3.3,3.5-6.1,6-8.4c2.5-2.3,5.5-4.1,9-5.4 c3.5-1.3,7.1-1.9,11-1.9c3.6,0,6.9,0.6,9.9,1.9c3,1.3,5.5,3.1,7.5,5.4c2.1,2.3,3.6,5.1,4.8,8.4c1.1,3.3,1.7,6.9,1.7,11v4.9h-36.4 c0.6,3,2,5.4,4.1,7.2c2.1,1.8,4.7,2.7,7.7,2.7c2.6,0,4.8-0.6,6.5-1.7c1.8-1.2,3.3-2.6,4.7-4.4L418.6,646.7z M405.3,624.3 c0.1-2.7-0.8-4.9-2.6-6.8c-1.8-1.9-4.2-2.8-7-2.8c-1.7,0-3.3,0.3-4.6,0.8c-1.3,0.6-2.5,1.3-3.4,2.1c-0.9,0.9-1.7,1.9-2.2,3 c-0.5,1.2-0.8,2.4-0.9,3.6H405.3z"></path> <path fill="#EC2928" d="M430.5,576.4h15.7v48.3l17.4-20.1h19.3l-20.2,22.9l20.7,27.9h-19.8l-17.2-25.7h-0.2v25.7h-15.7V576.4z"></path> <path fill="#EC2928" d="M517.5,619.6c-2.3-2.9-5.3-4.3-9.1-4.3c-1.3,0-2.6,0.3-3.9,0.9c-1.3,0.6-1.9,1.7-1.9,3.2 c0,1.3,0.6,2.2,1.9,2.8c1.3,0.6,2.9,1.1,4.9,1.6c2,0.5,4.1,0.9,6.4,1.5c2.3,0.5,4.4,1.3,6.4,2.5c2,1.1,3.6,2.6,4.9,4.6 c1.3,1.9,1.9,4.5,1.9,7.7c0,3.3-0.7,6-2.1,8.1c-1.4,2.1-3.3,3.8-5.5,5.1c-2.2,1.3-4.7,2.2-7.5,2.7c-2.8,0.5-5.5,0.8-8.3,0.8 c-3.6,0-7.2-0.5-10.8-1.5c-3.6-1-6.7-2.8-9.2-5.4l9.5-10.6c1.5,1.8,3.1,3.2,4.9,4.1c1.8,0.9,3.9,1.4,6.2,1.4c1.8,0,3.5-0.3,4.9-0.8 c1.5-0.5,2.2-1.5,2.2-2.9c0-1.3-0.6-2.3-1.9-3c-1.3-0.7-2.9-1.2-4.9-1.7c-2-0.5-4.1-0.9-6.4-1.5c-2.3-0.5-4.4-1.3-6.4-2.4 c-2-1-3.6-2.5-4.9-4.4c-1.3-1.9-1.9-4.5-1.9-7.7c0-3,0.6-5.6,1.8-7.7c1.2-2.2,2.8-3.9,4.8-5.3c2-1.4,4.3-2.4,6.9-3.1 c2.6-0.7,5.2-1,7.8-1c3.3,0,6.7,0.5,10.1,1.5c3.4,1,6.3,2.7,8.7,5.2L517.5,619.6z"></path> <path fill="#EC2928" d="M539.1,581.4h16.3V609h31.7v-27.6h16.3v74.1h-16.3v-32h-31.7v32h-16.3V581.4z"></path> <path fill="#EC2928" d="M665.5,655.5h-15.1v-6.9h-0.2c-0.6,1-1.3,2-2.1,2.9c-0.9,1-1.9,1.8-3.2,2.6c-1.3,0.8-2.7,1.4-4.3,1.9 c-1.6,0.5-3.3,0.7-5.2,0.7c-4,0-7.2-0.6-9.7-1.8c-2.5-1.2-4.4-2.9-5.8-5.1c-1.4-2.2-2.3-4.7-2.7-7.6c-0.5-2.9-0.7-6.1-0.7-9.5v-28 h15.7v24.9c0,1.5,0.1,3,0.2,4.6s0.4,3,0.9,4.3c0.5,1.3,1.3,2.4,2.4,3.2c1.1,0.8,2.6,1.3,4.7,1.3c2,0,3.7-0.4,4.9-1.1 c1.3-0.7,2.2-1.7,2.9-2.9c0.7-1.2,1.1-2.6,1.3-4.1c0.2-1.5,0.3-3.1,0.3-4.8v-25.3h15.7V655.5z"></path> <path fill="#EC2928" d="M678.1,576.4h15.7v33.7h0.2c1.8-2.4,4.1-4.2,7-5.2c2.8-1,5.9-1.5,9.2-1.5c3.6,0,6.9,0.8,9.7,2.3 c2.9,1.5,5.3,3.5,7.3,6s3.5,5.4,4.6,8.6c1.1,3.2,1.6,6.6,1.6,10.2c0,3.8-0.6,7.4-1.8,10.6c-1.2,3.2-2.9,6-5.1,8.3 c-2.2,2.3-4.8,4.2-7.9,5.4c-3.1,1.3-6.5,1.9-10.3,1.9c-1.8,0-3.5-0.2-5.1-0.7c-1.6-0.5-3.1-1.1-4.4-1.9c-1.4-0.8-2.5-1.6-3.6-2.6 c-1-0.9-1.8-1.9-2.5-2.8h-0.2v6.7h-14.4V576.4z M692.5,630.1c0,3.8,1.1,6.9,3.3,9.3c2.2,2.4,5.3,3.6,9.3,3.6c4,0,7.1-1.2,9.3-3.6 c2.2-2.4,3.3-5.5,3.3-9.3c0-3.8-1.1-6.9-3.3-9.3c-2.2-2.4-5.3-3.6-9.3-3.6c-4,0-7.1,1.2-9.3,3.6 C693.6,623.1,692.5,626.2,692.5,630.1z"></path> <path fill="#EC2928" d="M771.3,619.6c-2.3-2.9-5.3-4.3-9.1-4.3c-1.3,0-2.6,0.3-3.9,0.9s-1.9,1.7-1.9,3.2c0,1.3,0.6,2.2,1.9,2.8 c1.3,0.6,2.9,1.1,4.9,1.6c2,0.5,4.1,0.9,6.4,1.5c2.3,0.5,4.4,1.3,6.4,2.5c2,1.1,3.6,2.6,4.9,4.6c1.3,1.9,1.9,4.5,1.9,7.7 c0,3.3-0.7,6-2.1,8.1c-1.4,2.1-3.3,3.8-5.5,5.1c-2.2,1.3-4.7,2.2-7.5,2.7c-2.8,0.5-5.5,0.8-8.3,0.8c-3.6,0-7.2-0.5-10.8-1.5 c-3.6-1-6.7-2.8-9.2-5.4l9.5-10.6c1.5,1.8,3.1,3.2,4.9,4.1c1.8,0.9,3.9,1.4,6.2,1.4c1.8,0,3.5-0.3,4.9-0.8c1.5-0.5,2.2-1.5,2.2-2.9 c0-1.3-0.6-2.3-1.9-3c-1.3-0.7-2.9-1.2-4.9-1.7c-2-0.5-4.1-0.9-6.4-1.5c-2.3-0.5-4.4-1.3-6.4-2.4c-2-1-3.6-2.5-4.9-4.4 c-1.3-1.9-1.9-4.5-1.9-7.7c0-3,0.6-5.6,1.8-7.7c1.2-2.2,2.8-3.9,4.8-5.3c2-1.4,4.3-2.4,6.9-3.1c2.6-0.7,5.2-1,7.8-1 c3.3,0,6.7,0.5,10.1,1.5c3.4,1,6.3,2.7,8.7,5.2L771.3,619.6z"></path> </g> <rect x="440" y="720" fill="#373A4E" width="38.7" height="3.8"></rect> <g> <path fill="#373A4E" d="M242.4,718.6L242.4,718.6c-1.1,1.3-2.3,2.2-3.7,2.7s-2.9,0.8-4.4,0.8c-1.1,0-2.2-0.2-3.1-0.5 c-1-0.3-1.8-0.8-2.5-1.4c-0.7-0.6-1.2-1.4-1.5-2.3c-0.3-0.9-0.4-2-0.2-3.2c0.3-2.1,1.1-3.6,2.3-4.8c1.3-1.1,2.7-2,4.4-2.5 c1.7-0.5,3.5-0.9,5.4-1c1.9-0.1,3.6-0.1,5.1-0.1c0.2-1.3-0.2-2.3-1-3.1c-0.8-0.8-1.9-1.1-3.1-1.1c-1.2,0-2.3,0.3-3.4,0.8 c-1.1,0.5-2,1.2-3,2.1l-3.3-4c1.5-1.3,3.3-2.2,5.2-2.9c1.9-0.6,3.8-1,5.8-1c2.2,0,3.9,0.3,5.2,0.8s2.3,1.3,3,2.4 c0.7,1,1.1,2.3,1.2,3.8c0.1,1.5,0,3.3-0.3,5.3l-1.7,12.1H242L242.4,718.6z M241.6,711.1c-0.6,0-1.2,0-2.1,0.1 c-0.8,0-1.6,0.2-2.4,0.4c-0.8,0.2-1.5,0.6-2.1,1c-0.6,0.5-1,1.1-1.1,1.9c-0.1,0.5,0,0.8,0.1,1.1c0.2,0.3,0.4,0.6,0.7,0.8 c0.3,0.2,0.6,0.4,1.1,0.5c0.4,0.1,0.8,0.1,1.2,0.1c0.7,0,1.4-0.1,2.1-0.3c0.7-0.2,1.3-0.5,1.9-0.8c0.6-0.4,1.1-0.8,1.4-1.4 c0.4-0.6,0.6-1.2,0.7-2l0.2-1.6H241.6z"></path> <path fill="#373A4E" d="M271.7,705.5c-0.3-0.5-0.7-1-1.3-1.3c-0.6-0.3-1.3-0.5-2-0.5c-1.9,0-3.4,0.6-4.5,1.7 c-1.2,1.1-1.9,2.6-2.2,4.3c-0.3,1.8,0,3.2,0.9,4.4c0.9,1.1,2.2,1.7,4.1,1.7c0.8,0,1.5-0.2,2.2-0.5s1.2-0.8,1.7-1.3l4.1,5.1 c-1.3,1.2-2.8,2-4.4,2.5c-1.6,0.5-3.1,0.7-4.5,0.7c-1.8,0-3.5-0.3-5-0.9c-1.5-0.6-2.8-1.4-3.8-2.5c-1-1.1-1.8-2.4-2.2-3.9 c-0.5-1.5-0.6-3.2-0.3-5.1c0.3-1.9,0.8-3.6,1.7-5.1s2-2.8,3.3-3.9c1.3-1.1,2.9-1.9,4.5-2.5c1.7-0.6,3.5-0.9,5.3-0.9 c1.4,0,2.8,0.2,4.3,0.7c1.5,0.5,2.7,1.3,3.7,2.5L271.7,705.5z"></path> <path fill="#373A4E" d="M292.2,718.6L292.2,718.6c-1.1,1.3-2.3,2.2-3.7,2.7s-2.9,0.8-4.4,0.8c-1.1,0-2.2-0.2-3.1-0.5 c-1-0.3-1.8-0.8-2.5-1.4c-0.7-0.6-1.2-1.4-1.5-2.3c-0.3-0.9-0.4-2-0.2-3.2c0.3-2.1,1.1-3.6,2.3-4.8c1.3-1.1,2.7-2,4.4-2.5 c1.7-0.5,3.5-0.9,5.4-1c1.9-0.1,3.6-0.1,5.1-0.1c0.2-1.3-0.2-2.3-1-3.1c-0.8-0.8-1.9-1.1-3.1-1.1c-1.2,0-2.3,0.3-3.4,0.8 c-1.1,0.5-2,1.2-3,2.1l-3.3-4c1.5-1.3,3.3-2.2,5.2-2.9c1.9-0.6,3.8-1,5.8-1c2.2,0,3.9,0.3,5.2,0.8s2.3,1.3,3,2.4 c0.7,1,1.1,2.3,1.2,3.8c0.1,1.5,0,3.3-0.3,5.3l-1.7,12.1h-6.7L292.2,718.6z M291.4,711.1c-0.6,0-1.2,0-2.1,0.1 c-0.8,0-1.6,0.2-2.4,0.4c-0.8,0.2-1.5,0.6-2.1,1c-0.6,0.5-1,1.1-1.1,1.9c-0.1,0.5,0,0.8,0.1,1.1c0.2,0.3,0.4,0.6,0.7,0.8 c0.3,0.2,0.6,0.4,1.1,0.5c0.4,0.1,0.8,0.1,1.2,0.1c0.7,0,1.4-0.1,2.1-0.3c0.7-0.2,1.3-0.5,1.9-0.8c0.6-0.4,1.1-0.8,1.4-1.4 c0.4-0.6,0.6-1.2,0.7-2l0.2-1.6H291.4z"></path> <path fill="#373A4E" d="M328.1,721.6h-6.7l0.4-3.1h-0.1c-0.3,0.4-0.8,0.9-1.3,1.3c-0.5,0.4-1.1,0.8-1.8,1.2 c-0.7,0.4-1.4,0.7-2.2,0.9c-0.8,0.2-1.6,0.3-2.4,0.3c-1.8,0-3.3-0.3-4.7-0.9c-1.4-0.6-2.5-1.4-3.3-2.5c-0.9-1.1-1.5-2.4-1.8-3.9 c-0.3-1.5-0.4-3.1-0.1-4.9c0.2-1.7,0.7-3.3,1.4-4.8c0.7-1.5,1.6-2.9,2.7-4c1.1-1.2,2.4-2.1,3.8-2.8c1.4-0.7,3-1.1,4.7-1.1 c1.5,0,2.9,0.2,4.2,0.7c1.3,0.5,2.2,1.3,2.9,2.4h0.1l2.2-15.7h7.3L328.1,721.6z M323,709.7c0.3-1.8,0-3.2-0.9-4.3 c-0.9-1.1-2.2-1.7-4.1-1.7c-1.9,0-3.4,0.6-4.5,1.7c-1.2,1.1-1.9,2.6-2.2,4.3c-0.3,1.8,0,3.2,0.9,4.4c0.9,1.1,2.2,1.7,4.1,1.7 c1.9,0,3.4-0.6,4.6-1.7C322,712.9,322.7,711.5,323,709.7z"></path> <path fill="#373A4E" d="M357,717.5c-1.4,1.5-3,2.7-4.9,3.5c-1.9,0.8-3.8,1.2-5.7,1.2c-1.8,0-3.5-0.3-5-0.9 c-1.5-0.6-2.8-1.4-3.8-2.5c-1-1.1-1.8-2.4-2.2-3.9c-0.5-1.5-0.6-3.2-0.3-5.1c0.3-1.9,0.8-3.6,1.7-5.1c0.9-1.5,2-2.8,3.3-3.9 c1.3-1.1,2.9-1.9,4.5-2.5c1.7-0.6,3.5-0.9,5.3-0.9c1.7,0,3.2,0.3,4.5,0.9c1.3,0.6,2.4,1.4,3.2,2.5c0.8,1.1,1.4,2.4,1.7,3.9 c0.3,1.5,0.3,3.2,0.1,5.1l-0.3,2.3h-17c0.1,1.4,0.6,2.5,1.4,3.3c0.9,0.8,2,1.2,3.4,1.2c1.2,0,2.3-0.3,3.2-0.8 c0.9-0.5,1.7-1.2,2.5-2.1L357,717.5z M352.2,707c0.2-1.2-0.1-2.3-0.8-3.2c-0.7-0.9-1.7-1.3-3.1-1.3c-0.8,0-1.5,0.1-2.2,0.4 c-0.7,0.3-1.2,0.6-1.7,1c-0.5,0.4-0.9,0.9-1.2,1.4c-0.3,0.5-0.6,1.1-0.7,1.7H352.2z"></path> <path fill="#373A4E" d="M365.3,697.8h7l-0.4,3.2h0.1c0.3-0.5,0.7-0.9,1.2-1.4c0.5-0.5,1-0.9,1.7-1.2c0.6-0.4,1.3-0.7,2.1-0.9 c0.8-0.2,1.6-0.3,2.5-0.3c1.7,0,3.1,0.3,4.3,1c1.2,0.7,2,1.8,2.4,3.2c1.1-1.5,2.3-2.6,3.5-3.3c1.3-0.7,2.8-1,4.6-1 c1.6,0,2.9,0.3,3.9,0.8c1,0.5,1.8,1.3,2.3,2.2s0.8,2,0.9,3.3c0.1,1.3,0,2.6-0.1,4l-2,14H392l1.9-13.8c0.2-1.1,0.1-2.1-0.3-2.9 c-0.4-0.8-1.1-1.2-2.3-1.2c-0.8,0-1.6,0.1-2.2,0.4c-0.6,0.3-1.1,0.7-1.5,1.1c-0.4,0.5-0.7,1.1-1,1.7c-0.2,0.7-0.4,1.3-0.5,2.1 l-1.8,12.6H377l1.8-12.6c0.1-0.4,0.1-0.9,0.2-1.6c0-0.6,0-1.2-0.1-1.8c-0.1-0.6-0.4-1-0.8-1.4c-0.4-0.4-1-0.6-1.9-0.6 c-0.9,0-1.7,0.2-2.4,0.5c-0.6,0.3-1.1,0.8-1.5,1.4c-0.4,0.6-0.7,1.2-0.9,1.9c-0.2,0.7-0.3,1.5-0.4,2.2l-1.7,11.8H362L365.3,697.8z"></path> <path fill="#373A4E" d="M417.6,725.4c-0.7,1.3-1.3,2.4-1.9,3.4c-0.6,1-1.3,1.8-2.1,2.5c-0.8,0.7-1.8,1.2-2.9,1.5 c-1.1,0.3-2.6,0.5-4.3,0.5c-1.9,0-3.7-0.3-5.3-0.9l1.8-6c1,0.5,2.1,0.7,3.3,0.7c0.8,0,1.5-0.1,2.1-0.3c0.6-0.2,1-0.4,1.4-0.8 c0.4-0.3,0.7-0.8,1-1.2c0.3-0.5,0.6-1.1,1-1.7l0.7-1.4l-7-24h7.9l3.9,15.7h0.1l7.4-15.7h7.5L417.6,725.4z"></path> </g> <path fill="#EB1D25" d="M15,555.4v128.8h48.7l60.7,40.3l0.1-40.3h44.8V555.4H15z M152.3,667.2h-44.8l-0.1,27.6l-39.1-27.6H32v-95.6 h120.3V667.2z"></path> <g> <rect x="51.1" y="605.2" fill="#F27C7B" width="16.4" height="16.4"></rect> <rect x="67.5" y="605.2" fill="#EF5152" width="16.4" height="16.4"></rect> <rect x="83.6" y="605.2" fill="#F27C7B" width="16.4" height="16.4"></rect> <rect x="100" y="605.2" fill="#EF5152" width="16.4" height="16.4"></rect> <rect x="116.4" y="605.2" fill="#F27C7B" width="16.4" height="16.4"></rect> <rect x="67.5" y="621.5" fill="#EC2928" width="16.4" height="16.4"></rect> <rect x="83.6" y="621.5" fill="#EF5152" width="16.4" height="16.4"></rect> <rect x="100" y="621.5" fill="#EC2928" width="16.4" height="16.4"></rect> <rect x="83.6" y="638" fill="#EC2928" width="16.4" height="16.4"></rect> </g> </svg>